<svg width="174" height="28" viewBox="0 0 174 28" fill="none" xmlns="http://www.w3.org/2000/svg">
<g id="Vector">
<path d="M1.4181 21.4842C2.39957 22.1335 3.42956 22.6336 4.50806 22.9844C5.58657 23.3352 6.66507 23.5106 7.75103 23.5106C8.40037 23.5106 8.98627 23.4397 9.50127 23.3016C10.0163 23.1635 10.4603 22.9583 10.8298 22.6896C11.1993 22.4209 11.4829 22.1 11.6807 21.723C11.8784 21.3461 11.9755 20.917 11.9755 20.4318C11.9755 19.8086 11.8038 19.26 11.4605 18.7861C11.1172 18.3159 10.6619 17.8979 10.1021 17.5322C9.54232 17.1702 8.90044 16.8231 8.18019 16.4985C7.45995 16.1738 6.72478 15.8305 5.97841 15.4647C5.23204 15.099 4.5006 14.7035 3.77662 14.2706C3.05638 13.8377 2.4145 13.3189 1.85472 12.7218C1.29495 12.121 0.843396 11.4232 0.50753 10.6283C0.167933 9.82967 0 8.89671 0 7.82567C0 6.61282 0.220179 5.52312 0.660536 4.55285C1.10089 3.58257 1.72038 2.75783 2.51899 2.0749C3.31761 1.39198 4.27296 0.876983 5.39251 0.52619C6.50833 0.175396 7.74357 0 9.09823 0C10.4529 0 11.7142 0.164201 12.8413 0.496335C13.972 0.828469 15.0393 1.31361 16.0506 1.95175L14.7856 6.19859C13.8787 5.63881 12.957 5.20592 12.0277 4.90737C11.0985 4.60882 10.1357 4.45955 9.15421 4.45955C8.60562 4.45955 8.09436 4.52672 7.62042 4.66107C7.14647 4.79541 6.74344 4.98574 6.40384 5.23577C6.06424 5.48581 5.79928 5.79182 5.60896 6.1538C5.41863 6.51579 5.3216 6.92256 5.3216 7.37039C5.3216 7.98241 5.48954 8.5086 5.82913 8.94895C6.16873 9.38931 6.61655 9.79235 7.18006 10.1543C7.74357 10.5163 8.38545 10.8559 9.10569 11.1694C9.82594 11.4829 10.5611 11.815 11.3075 12.1733C12.0538 12.5315 12.789 12.9308 13.5093 13.3786C14.2295 13.8265 14.8714 14.3527 15.4349 14.9572C15.9984 15.5618 16.4462 16.2746 16.7858 17.0918C17.1254 17.9091 17.2933 18.8719 17.2933 19.9803C17.2933 21.2155 17.0582 22.3313 16.5843 23.3203C16.1104 24.3092 15.4536 25.1489 14.6102 25.8467C13.7668 26.5409 12.7666 27.0745 11.6023 27.444C10.4417 27.8134 9.1766 28 7.81074 28C6.27696 28 4.88871 27.8097 3.64601 27.4365C2.39957 27.0596 1.26883 26.5147 0.246301 25.8019L1.41437 21.4991L1.4181 21.4842Z" fill="black"/>
<path d="M31.7318 5.48954C33.2358 5.48954 34.6763 5.72464 36.0458 6.19859C37.4154 6.6688 38.6245 7.37412 39.6695 8.31081C40.7144 9.2475 41.5503 10.4081 42.1773 11.7926C42.8005 13.1771 43.114 14.7818 43.114 16.603C43.114 18.4241 42.7967 20.1034 42.1661 21.5178C41.5354 22.9322 40.6883 24.1226 39.6209 25.0854C38.5574 26.0482 37.3147 26.7722 35.9003 27.2574C34.4859 27.7425 32.9932 27.9851 31.4221 27.9851C29.851 27.9851 28.4777 27.75 27.1081 27.276C25.7385 26.8058 24.5331 26.1005 23.4919 25.1638C22.4508 24.2271 21.6186 23.0665 20.9953 21.682C20.3721 20.2975 20.0586 18.6891 20.0586 16.853C20.0586 15.0169 20.3758 13.3712 21.0065 11.9568C21.6372 10.5424 22.4843 9.35199 23.5404 8.38918C24.6003 7.42636 25.8355 6.70239 27.2499 6.21725C28.6643 5.73211 30.157 5.48954 31.7281 5.48954H31.7318ZM31.5229 9.88938C30.7205 9.88938 29.9443 10.0349 29.1979 10.3297C28.4516 10.6245 27.791 11.0574 27.2163 11.6321C26.6416 12.2069 26.1826 12.9159 25.8393 13.7593C25.4959 14.6027 25.3243 15.573 25.3243 16.6701C25.3243 17.8307 25.4959 18.8421 25.8393 19.6967C26.1826 20.5512 26.6491 21.2715 27.235 21.8537C27.8209 22.4358 28.5001 22.8687 29.2726 23.1561C30.045 23.4434 30.8511 23.589 31.6908 23.589C32.467 23.589 33.232 23.4434 33.9784 23.1486C34.7248 22.8538 35.3853 22.4246 35.96 21.8574C36.5347 21.2901 36.9975 20.5848 37.3483 19.7414C37.6991 18.898 37.8745 17.9278 37.8745 16.8306C37.8745 15.7334 37.7028 14.6736 37.3595 13.8041C37.0161 12.9346 36.5496 12.2143 35.9637 11.6396C35.3778 11.0649 34.6987 10.632 33.9262 10.3372C33.1537 10.0424 32.3551 9.89684 31.5266 9.89684L31.5229 9.88938Z" fill="black"/>
<path d="M45.8755 6.27322H51.0217V23.6449H58.9034V27.9888H45.8755V6.27322Z" fill="black"/>
<path d="M70.696 5.48954C72.1999 5.48954 73.6404 5.72464 75.01 6.19859C76.3796 6.6688 77.5887 7.37412 78.6336 8.31081C79.6785 9.2475 80.5145 10.4081 81.1414 11.7926C81.7646 13.1771 82.0781 14.7818 82.0781 16.603C82.0781 18.4241 81.7609 20.1034 81.1302 21.5178C80.4995 22.9322 79.6524 24.1226 78.5851 25.0854C77.5215 26.0482 76.2788 26.7722 74.8645 27.2574C73.4501 27.7425 71.9574 27.9851 70.3862 27.9851C68.8151 27.9851 67.4418 27.75 66.0722 27.276C64.7026 26.8058 63.4973 26.1005 62.4561 25.1638C61.4149 24.2271 60.5827 23.0665 59.9595 21.682C59.3363 20.2975 59.0228 18.6891 59.0228 16.853C59.0228 15.0169 59.34 13.3712 59.9707 11.9568C60.6014 10.5424 61.4485 9.35199 62.5046 8.38918C63.5644 7.42636 64.7997 6.70239 66.214 6.21725C67.6284 5.73211 69.1211 5.48954 70.6923 5.48954H70.696ZM70.487 9.88938C69.6847 9.88938 68.9084 10.0349 68.1621 10.3297C67.4157 10.6245 66.7552 11.0574 66.1805 11.6321C65.6058 12.2069 65.1467 12.9159 64.8034 13.7593C64.4601 14.6027 64.2884 15.573 64.2884 16.6701C64.2884 17.8307 64.4601 18.8421 64.8034 19.6967C65.1467 20.5512 65.6132 21.2715 66.1991 21.8537C66.785 22.4358 67.4642 22.8687 68.2367 23.1561C69.0092 23.4434 69.8153 23.589 70.6549 23.589C71.4312 23.589 72.1962 23.4434 72.9426 23.1486C73.6889 22.8538 74.3495 22.4246 74.9242 21.8574C75.4989 21.2901 75.9616 20.5848 76.3124 19.7414C76.6632 18.898 76.8386 17.9278 76.8386 16.8306C76.8386 15.7334 76.6669 14.6736 76.3236 13.8041C75.9803 12.9346 75.5138 12.2143 74.9279 11.6396C74.342 11.0649 73.6628 10.632 72.8903 10.3372C72.1178 10.0424 71.3192 9.89684 70.4907 9.89684L70.487 9.88938Z" fill="black"/>
<path d="M132.219 10.4454H123.494V14.9423H131.626V19.0921H123.494V23.8166H132.219V27.9888H118.482V6.27322H132.219V10.4454Z" fill="black"/>
<path d="M153.173 25.69C152.218 26.4102 151.125 26.9737 149.893 27.3768C148.662 27.7798 147.296 27.9851 145.788 27.9851C144.157 27.9851 142.676 27.7276 141.351 27.2089C140.026 26.6901 138.888 25.9512 137.947 24.9884C137.003 24.0256 136.272 22.8575 135.757 21.4879C135.242 20.1184 134.981 18.5696 134.981 16.8493C134.981 15.0244 135.264 13.4085 135.832 12.0016C136.399 10.591 137.179 9.40424 138.175 8.43396C139.172 7.46368 140.34 6.73224 141.687 6.23217C143.034 5.73211 144.478 5.48581 146.019 5.48581C147.296 5.48581 148.46 5.63881 149.512 5.94482C150.565 6.25083 151.498 6.71731 152.315 7.34053L151.091 11.4344C149.766 10.3745 148.191 9.84833 146.367 9.84833C145.523 9.84833 144.732 9.99387 143.986 10.2775C143.239 10.5648 142.59 10.994 142.034 11.5612C141.478 12.1285 141.041 12.8413 140.724 13.6959C140.407 14.5504 140.246 15.5431 140.246 16.6664C140.246 17.7262 140.388 18.6853 140.675 19.5399C140.963 20.3945 141.377 21.1222 141.918 21.7156C142.459 22.3089 143.116 22.768 143.889 23.0964C144.661 23.421 145.531 23.5852 146.501 23.5852C147.609 23.5852 148.609 23.421 149.494 23.0889C150.382 22.7568 151.218 22.2455 152.009 21.5588L153.177 25.69H153.173Z" fill="black"/>
<path d="M173.538 10.6171H167.339V27.9888H162.193V10.6171H155.939V6.27322H173.538V10.6171Z" fill="black"/>
<path d="M103.461 25.4698C103.461 27.8171 100.532 28.877 99.028 27.082L90.6612 17.1105C90.3888 16.7858 89.8626 16.9799 89.8626 17.4016V27.9888H84.8396V11.774C84.8396 9.88191 86.3734 8.34813 88.2654 8.34813C89.2767 8.34813 90.2395 8.79595 90.8889 9.57217L102.876 23.8539C103.256 24.3092 103.461 24.8802 103.461 25.4735V25.4698Z" fill="black"/>
<path d="M97.0987 10.8671C97.0987 8.51979 100.028 7.45995 101.532 9.25496L109.899 19.2264C110.171 19.5511 110.697 19.3571 110.697 18.9354V14.3303H115.721V24.563C115.721 26.455 114.187 27.9888 112.295 27.9888C111.283 27.9888 110.321 27.541 109.671 26.7648L97.6846 12.483C97.3039 12.0277 97.0987 11.4568 97.0987 10.8634V10.8671Z" fill="black"/>
</g>
</svg>
