<svg width="96" height="96" viewBox="0 0 96 96" fill="none" xmlns="http://www.w3.org/2000/svg">
<g id="icon-park-outline:connect">
<g id="Group">
<path id="Vector" d="M16 24C18.1217 24 20.1566 23.1571 21.6569 21.6569C23.1571 20.1566 24 18.1217 24 16C24 13.8783 23.1571 11.8434 21.6569 10.3431C20.1566 8.84285 18.1217 8 16 8C13.8783 8 11.8434 8.84285 10.3431 10.3431C8.84285 11.8434 8 13.8783 8 16C8 18.1217 8.84285 20.1566 10.3431 21.6569C11.8434 23.1571 13.8783 24 16 24ZM20 84C23.1826 84 26.2348 82.7357 28.4853 80.4853C30.7357 78.2348 32 75.1826 32 72C32 68.8174 30.7357 65.7652 28.4853 63.5147C26.2348 61.2643 23.1826 60 20 60C16.8174 60 13.7652 61.2643 11.5147 63.5147C9.26428 65.7652 8 68.8174 8 72C8 75.1826 9.26428 78.2348 11.5147 80.4853C13.7652 82.7357 16.8174 84 20 84ZM76 88C79.1826 88 82.2348 86.7357 84.4853 84.4853C86.7357 82.2348 88 79.1826 88 76C88 72.8174 86.7357 69.7652 84.4853 67.5147C82.2348 65.2643 79.1826 64 76 64C72.8174 64 69.7652 65.2643 67.5147 67.5147C65.2643 69.7652 64 72.8174 64 76C64 79.1826 65.2643 82.2348 67.5147 84.4853C69.7652 86.7357 72.8174 88 76 88ZM44 56C48.2435 56 52.3131 54.3143 55.3137 51.3137C58.3143 48.3131 60 44.2435 60 40C60 35.7565 58.3143 31.6869 55.3137 28.6863C52.3131 25.6857 48.2435 24 44 24C39.7565 24 35.6869 25.6857 32.6863 28.6863C29.6857 31.6869 28 35.7565 28 40C28 44.2435 29.6857 48.3131 32.6863 51.3137C35.6869 54.3143 39.7565 56 44 56ZM68 24C70.1217 24 72.1566 23.1571 73.6569 21.6569C75.1571 20.1566 76 18.1217 76 16C76 13.8783 75.1571 11.8434 73.6569 10.3431C72.1566 8.84285 70.1217 8 68 8C65.8783 8 63.8434 8.84285 62.3431 10.3431C60.8429 11.8434 60 13.8783 60 16C60 18.1217 60.8429 20.1566 62.3431 21.6569C63.8434 23.1571 65.8783 24 68 24Z" stroke="#0E4044" stroke-width="7" stroke-linecap="round" stroke-linejoin="round"/>
<path id="Vector_2" d="M22 22L30 30M60 24L56 28M68 67L56 52M28 62L36 54" stroke="#0E4044" stroke-width="7" stroke-linecap="round" stroke-linejoin="round"/>
</g>
</g>
</svg>
