<svg width="96" height="96" viewBox="0 0 96 96" fill="none" xmlns="http://www.w3.org/2000/svg">
<g id="material-symbols-light:quiz-outline">
<g id="Vector">
<path d="M54 58.156C54.8267 58.156 55.5533 57.8413 56.18 57.212C56.8067 56.5827 57.1213 55.856 57.124 55.032C57.1267 54.208 56.812 53.4813 56.18 52.852C55.548 52.2227 54.8213 51.908 54 51.908C53.1787 51.908 52.452 52.2227 51.82 52.852C51.188 53.4813 50.8733 54.208 50.876 55.032C50.8787 55.856 51.1933 56.5827 51.82 57.212C52.4467 57.8413 53.1733 58.1587 54 58.156ZM52.232 46.892H55.768C55.872 45.2147 56.1373 43.952 56.564 43.104C56.988 42.256 58.0107 41.072 59.632 39.552C61.3227 38.016 62.5013 36.6427 63.168 35.432C63.8347 34.2267 64.168 32.8413 64.168 31.276C64.168 28.5827 63.208 26.3387 61.288 24.544C59.368 22.7467 56.9387 21.848 54 21.848C51.7787 21.848 49.8053 22.448 48.08 23.648C46.3547 24.848 45.0413 26.484 44.14 28.556L47.384 29.984C48.1387 28.4213 49.0587 27.248 50.144 26.464C51.2293 25.68 52.5147 25.2893 54 25.292C55.9093 25.292 57.492 25.8573 58.748 26.988C60.0013 28.1187 60.628 29.5787 60.628 31.368C60.628 32.456 60.324 33.468 59.716 34.404C59.1053 35.34 58.056 36.4667 56.568 37.784C54.8827 39.256 53.7387 40.6067 53.136 41.836C52.5333 43.0653 52.232 44.7507 52.232 46.892ZM32.464 68C30.6213 68 29.084 67.384 27.852 66.152C26.62 64.92 26.0027 63.3827 26 61.54V18.46C26 16.62 26.6173 15.0827 27.852 13.848C29.0867 12.6133 30.624 11.9973 32.464 12H75.54C77.38 12 78.9173 12.616 80.152 13.848C81.3867 15.08 82.0027 16.6173 82 18.46V61.54C82 63.38 81.384 64.916 80.152 66.148C78.92 67.38 77.3813 67.9973 75.536 68H32.464ZM32.464 64H75.54C76.1533 64 76.7173 63.744 77.232 63.232C77.7467 62.72 78.0027 62.156 78 61.54V18.46C78 17.8467 77.744 17.2827 77.232 16.768C76.72 16.2533 76.1547 15.9973 75.536 16H32.464C31.848 16 31.2827 16.256 30.768 16.768C30.2533 17.28 29.9973 17.844 30 18.46V61.54C30 62.1533 30.256 62.7173 30.768 63.232C31.28 63.7467 31.844 64.0027 32.46 64M20.46 80C18.62 80 17.0827 79.384 15.848 78.152C14.6133 76.92 13.9973 75.3827 14 73.54V26.46H18V73.54C18 74.1533 18.256 74.7173 18.768 75.232C19.28 75.7467 19.844 76.0027 20.46 76H67.54V80H20.46Z" fill="#0E4044"/>
<path d="M32.464 64H75.54C76.1533 64 76.7173 63.744 77.232 63.232C77.7467 62.72 78.0027 62.156 78 61.54V18.46C78 17.8467 77.744 17.2827 77.232 16.768C76.72 16.2533 76.1547 15.9973 75.536 16H32.464C31.848 16 31.2827 16.256 30.768 16.768C30.2533 17.28 29.9973 17.844 30 18.46V61.54C30 62.1533 30.256 62.7173 30.768 63.232C31.28 63.7467 31.844 64.0027 32.46 64M30 16V64M54 58.156C54.8267 58.156 55.5533 57.8413 56.18 57.212C56.8067 56.5827 57.1213 55.856 57.124 55.032C57.1267 54.208 56.812 53.4813 56.18 52.852C55.548 52.2227 54.8213 51.908 54 51.908C53.1787 51.908 52.452 52.2227 51.82 52.852C51.188 53.4813 50.8733 54.208 50.876 55.032C50.8787 55.856 51.1933 56.5827 51.82 57.212C52.4467 57.8413 53.1733 58.1587 54 58.156ZM52.232 46.892H55.768C55.872 45.2147 56.1373 43.952 56.564 43.104C56.988 42.256 58.0107 41.072 59.632 39.552C61.3227 38.016 62.5013 36.6427 63.168 35.432C63.8347 34.2267 64.168 32.8413 64.168 31.276C64.168 28.5827 63.208 26.3387 61.288 24.544C59.368 22.7467 56.9387 21.848 54 21.848C51.7787 21.848 49.8053 22.448 48.08 23.648C46.3547 24.848 45.0413 26.484 44.14 28.556L47.384 29.984C48.1387 28.4213 49.0587 27.248 50.144 26.464C51.2293 25.68 52.5147 25.2893 54 25.292C55.9093 25.292 57.492 25.8573 58.748 26.988C60.0013 28.1187 60.628 29.5787 60.628 31.368C60.628 32.456 60.324 33.468 59.716 34.404C59.1053 35.34 58.056 36.4667 56.568 37.784C54.8827 39.256 53.7387 40.6067 53.136 41.836C52.5333 43.0653 52.232 44.7507 52.232 46.892ZM32.464 68C30.6213 68 29.084 67.384 27.852 66.152C26.62 64.92 26.0027 63.3827 26 61.54V18.46C26 16.62 26.6173 15.0827 27.852 13.848C29.0867 12.6133 30.624 11.9973 32.464 12H75.54C77.38 12 78.9173 12.616 80.152 13.848C81.3867 15.08 82.0027 16.6173 82 18.46V61.54C82 63.38 81.384 64.916 80.152 66.148C78.92 67.38 77.3813 67.9973 75.536 68H32.464ZM20.46 80C18.62 80 17.0827 79.384 15.848 78.152C14.6133 76.92 13.9973 75.3827 14 73.54V26.46H18V73.54C18 74.1533 18.256 74.7173 18.768 75.232C19.28 75.7467 19.844 76.0027 20.46 76H67.54V80H20.46Z" stroke="#0E4044" stroke-width="2"/>
</g>
</g>
</svg>
