<svg width="97" height="96" viewBox="0 0 97 96" fill="none" xmlns="http://www.w3.org/2000/svg">
<g id="mdi:heart-outline">
<path id="Vector" d="M48.9407 74.2L48.5406 74.6L48.1007 74.2C29.1007 56.96 16.5406 45.56 16.5406 34C16.5406 26 22.5406 20 30.5406 20C36.7006 20 42.7006 24 44.8206 29.44H52.2607C54.3806 24 60.3806 20 66.5406 20C74.5406 20 80.5406 26 80.5406 34C80.5406 45.56 67.9807 56.96 48.9407 74.2ZM66.5406 12C59.5807 12 52.9007 15.24 48.5406 20.32C44.1806 15.24 37.5006 12 30.5406 12C18.2206 12 8.54065 21.64 8.54065 34C8.54065 49.08 22.1406 61.44 42.7407 80.12L48.5406 85.4L54.3406 80.12C74.9407 61.44 88.5406 49.08 88.5406 34C88.5406 21.64 78.8606 12 66.5406 12Z" fill="#0E4044"/>
</g>
</svg>
