<svg width="97" height="96" viewBox="0 0 97 96" fill="none" xmlns="http://www.w3.org/2000/svg">
<g id="lucide:plane">
<path id="Vector" d="M71.7406 76.8L64.5406 44L78.5406 30C84.5406 24 86.5406 16 84.5406 12C80.5406 10 72.5406 12 66.5406 18L52.5406 32L19.7407 24.8C17.7407 24.4 16.1406 25.2 15.3406 26.8L14.1406 28.8C13.3406 30.8 13.7406 32.8 15.3406 34L36.5406 48L28.5406 60H16.5406L12.5406 64L24.5406 72L32.5406 84L36.5406 80V68L48.5406 60L62.5406 81.2C63.7406 82.8 65.7406 83.2 67.7406 82.4L69.7406 81.6C71.3406 80.4 72.1406 78.8 71.7406 76.8Z" stroke="#0E4044" stroke-width="7" stroke-linecap="round" stroke-linejoin="round"/>
</g>
</svg>
