<svg width="48" height="52" viewBox="0 0 48 52" fill="none" xmlns="http://www.w3.org/2000/svg">
<path d="M34.1495 13.0769L35.6454 13.1878L35.6454 13.1877L34.1495 13.0769ZM13.8418 13.0769L12.3458 13.1857L12.3458 13.1858L13.8418 13.0769ZM1.88716 47.5308L3.36333 47.7971L3.36334 47.797L1.88716 47.5308ZM46.1129 47.5308L47.5891 47.2645L47.5891 47.2644L46.1129 47.5308ZM32.6536 12.966C32.2429 18.5051 28.0826 22.6538 23.9957 22.6538V25.6538C30.0626 25.6538 35.1515 19.8495 35.6454 13.1878L32.6536 12.966ZM23.9957 22.6538C19.9072 22.6538 15.741 18.5047 15.3379 12.968L12.3458 13.1858C12.8311 19.8522 17.9303 25.6538 23.9957 25.6538V22.6538ZM15.3379 12.9681C14.9392 7.48638 18.7561 3.5 23.9957 3.5V0.5C17.0044 0.5 11.8214 5.97516 12.3458 13.1857L15.3379 12.9681ZM23.9957 3.5C29.2257 3.5 33.0517 7.59178 32.6536 12.9661L35.6454 13.1877C36.1704 6.10053 30.9964 0.5 23.9957 0.5V3.5ZM23.9995 30.0385C13.5351 30.0385 2.47191 35.8373 0.410972 47.2645L3.36334 47.797C5.07317 38.3165 14.3869 33.0385 23.9995 33.0385V30.0385ZM0.410985 47.2645C0.236049 48.2342 0.408081 49.2614 0.971828 50.0851C1.55864 50.9425 2.52414 51.5 3.69177 51.5V48.5C3.59692 48.5 3.54972 48.4798 3.5289 48.4687C3.506 48.4564 3.47768 48.4348 3.44748 48.3907C3.38181 48.2947 3.31096 48.0874 3.36333 47.7971L0.410985 47.2645ZM3.69177 51.5H44.3072V48.5H3.69177V51.5ZM44.3072 51.5C45.4749 51.5 46.4407 50.9429 47.0279 50.0854C47.592 49.2616 47.764 48.2342 47.5891 47.2645L44.6368 47.7971C44.6891 48.0874 44.6183 48.2946 44.5526 48.3904C44.5225 48.4345 44.4941 48.4562 44.4711 48.4685C44.4501 48.4797 44.4025 48.5 44.3072 48.5V51.5ZM47.5891 47.2644C45.5269 35.8373 34.4639 30.0385 23.9995 30.0385V33.0385C33.612 33.0385 42.9259 38.3165 44.6368 47.7972L47.5891 47.2644Z" fill="#0E4044"/>
</svg>
