<svg width="42" height="52" viewBox="0 0 42 52" fill="none" xmlns="http://www.w3.org/2000/svg">
<path id="Vector" d="M16.2 38L25.8 28.4M16.2 28.4H16.2216M25.7785 38H25.8M21 50C26.0922 50 30.9758 47.9772 34.5765 44.3765C38.1772 40.7758 40.2001 35.8922 40.2001 30.8C40.2001 16.4 21 2 21 2C20.0688 7.9688 19.1568 11.1728 16.2 16.4C13.32 15.068 12.6 14 11.4 11C6.60005 16.4 1.80005 23.6 1.80005 30.8C1.80005 35.8922 3.8229 40.7758 7.4236 44.3765C11.0243 47.9772 15.9079 50 21 50Z" stroke="#0E4044" stroke-width="3" stroke-linecap="round" stroke-linejoin="round"/>
</svg>
