<svg width="74" height="52" viewBox="0 0 74 52" fill="none" xmlns="http://www.w3.org/2000/svg">
<path id="Vector" d="M37.1086 25.6366C37.1086 25.6366 28.0653 50 20.8669 50C14.5901 50 12.1912 44.2789 11.6372 34.1259C11.2679 30.0668 22.7118 26.0059 22.7118 26.0059C22.7118 26.0059 7.76101 27.4815 7.02235 24.898C3.14615 11.4245 -1.4687 1.64078 7.76101 2.01012C26.9573 2.56411 37.1086 25.6366 37.1086 25.6366ZM37.1086 25.6366C37.1086 25.6366 46.1536 50 53.352 50C59.6271 50 62.0277 44.2789 62.5817 34.1259C62.7664 30.0668 51.3225 26.0059 51.3225 26.0059C51.3225 26.0059 66.2733 27.4815 67.0119 24.898C70.8881 11.4245 75.5012 1.82545 66.0886 2.01012C47.2616 2.56411 37.1086 25.6366 37.1086 25.6366Z" stroke="#0E4044" stroke-width="3" stroke-linecap="round" stroke-linejoin="round"/>
</svg>
