<svg width="52" height="52" viewBox="0 0 52 52" fill="none" xmlns="http://www.w3.org/2000/svg">
<path id="Vector" d="M10.4 10.4L15.2 15.2M33.2 11.6L30.8 14M38 37.4L30.8 28.4M14 34.4L18.8 29.6M6.8 11.6C8.07304 11.6 9.29394 11.0943 10.1941 10.1941C11.0943 9.29394 11.6 8.07304 11.6 6.8C11.6 5.52696 11.0943 4.30606 10.1941 3.40589C9.29394 2.50571 8.07304 2 6.8 2C5.52696 2 4.30606 2.50571 3.40589 3.40589C2.50571 4.30606 2 5.52696 2 6.8C2 8.07304 2.50571 9.29394 3.40589 10.1941C4.30606 11.0943 5.52696 11.6 6.8 11.6ZM9.2 47.6C11.1096 47.6 12.9409 46.8414 14.2912 45.4912C15.6414 44.1409 16.4 42.3096 16.4 40.4C16.4 38.4904 15.6414 36.6591 14.2912 35.3088C12.9409 33.9586 11.1096 33.2 9.2 33.2C7.29044 33.2 5.45909 33.9586 4.10883 35.3088C2.75857 36.6591 2 38.4904 2 40.4C2 42.3096 2.75857 44.1409 4.10883 45.4912C5.45909 46.8414 7.29044 47.6 9.2 47.6ZM42.8 50C44.7096 50 46.5409 49.2414 47.8912 47.8912C49.2414 46.5409 50 44.7096 50 42.8C50 40.8904 49.2414 39.0591 47.8912 37.7088C46.5409 36.3586 44.7096 35.6 42.8 35.6C40.8904 35.6 39.0591 36.3586 37.7088 37.7088C36.3586 39.0591 35.6 40.8904 35.6 42.8C35.6 44.7096 36.3586 46.5409 37.7088 47.8912C39.0591 49.2414 40.8904 50 42.8 50ZM23.6 30.8C26.1461 30.8 28.5879 29.7886 30.3882 27.9882C32.1886 26.1879 33.2 23.7461 33.2 21.2C33.2 18.6539 32.1886 16.2121 30.3882 14.4118C28.5879 12.6114 26.1461 11.6 23.6 11.6C21.0539 11.6 18.6121 12.6114 16.8118 14.4118C15.0114 16.2121 14 18.6539 14 21.2C14 23.7461 15.0114 26.1879 16.8118 27.9882C18.6121 29.7886 21.0539 30.8 23.6 30.8ZM38 11.6C39.273 11.6 40.4939 11.0943 41.3941 10.1941C42.2943 9.29394 42.8 8.07304 42.8 6.8C42.8 5.52696 42.2943 4.30606 41.3941 3.40589C40.4939 2.50571 39.273 2 38 2C36.727 2 35.5061 2.50571 34.6059 3.40589C33.7057 4.30606 33.2 5.52696 33.2 6.8C33.2 8.07304 33.7057 9.29394 34.6059 10.1941C35.5061 11.0943 36.727 11.6 38 11.6Z" stroke="#0E4044" stroke-width="3" stroke-linecap="round" stroke-linejoin="round"/>
</svg>
